<svg width="102" height="84" viewBox="0 0 102 84" fill="none" xmlns="http://www.w3.org/2000/svg">
<mask id="mask0_83_280" style="mask-type:alpha" maskUnits="userSpaceOnUse" x="0" y="0" width="102" height="84">
<path fill-rule="evenodd" clip-rule="evenodd" d="M79.9069 32.6798L89.9489 22.6378C96.1986 16.3881 96.1986 6.24973 89.9489 0L68.588 21.3609L57.2691 32.6798L68.588 43.9987L78.63 54.0406C84.8797 60.2904 95.0181 60.2904 101.268 54.0406L79.9069 32.6798ZM27.4612 60.7144C12.3164 60.7144 0 48.3932 0 33.2532C0 18.1131 12.3212 5.79196 27.4612 5.79196C42.6013 5.79196 54.9225 18.1131 54.9225 33.2532C54.9225 48.3932 42.6013 60.7144 27.4612 60.7144ZM27.4612 19.3852C19.8141 19.3852 13.5933 25.6061 13.5933 33.2532C13.5933 40.9003 19.8141 47.1211 27.4612 47.1211C35.1084 47.1211 41.3292 40.9003 41.3292 33.2532C41.3292 25.6061 35.1084 19.3852 27.4612 19.3852ZM97.4599 80.4288L61.0635 44.0323L52.4363 52.6595L80.2055 80.4288C84.9655 85.1887 92.6965 85.1921 97.4599 80.4288Z" fill="#E71F19"/>
</mask>
<g mask="url(#mask0_83_280)">
<rect x="-14.0098" y="-5.2583" width="123.687" height="94.0787" fill="#FFE53C"/>
</g>
</svg>
